<?xml version="1.0" standalone="no"?>
<!DOCTYPE svg PUBLIC "-//W3C//DTD SVG 20010904//EN"
 "http://www.w3.org/TR/2001/REC-SVG-20010904/DTD/svg10.dtd">
<svg version="1.0" xmlns="http://www.w3.org/2000/svg"
 width="564.000000pt" height="844.000000pt" viewBox="0 0 564.000000 844.000000"
 preserveAspectRatio="xMidYMid meet">
<metadata>
Created by potrace 1.16, written by Peter Selinger 2001-2019
</metadata>
<g transform="translate(0.000000,844.000000) scale(0.100000,-0.100000)"
fill="#000000" stroke="none">
<path d="M2921 8288 c-2 -247 -5 -274 -22 -294 -9 -11 -14 -24 -12 -31 3 -7
-15 -14 -51 -18 -31 -4 -56 -9 -56 -12 0 -16 23 -42 32 -37 7 4 8 3 4 -4 -14
-23 4 -32 30 -16 15 10 24 12 24 5 0 -6 -5 -11 -10 -11 -6 0 -6 -8 1 -22 26
-49 28 -57 20 -62 -14 -9 -4 -57 16 -71 16 -12 14 -14 -20 -20 -25 -5 -44 -17
-58 -36 -11 -16 -18 -29 -14 -29 3 0 -1 -13 -10 -30 -8 -16 -18 -53 -21 -82
-3 -29 -19 -78 -35 -109 -54 -108 -156 -344 -175 -404 -13 -44 -18 -92 -18
-180 0 -139 16 -208 66 -292 36 -59 105 -133 124 -133 7 0 28 -14 47 -31 l35
-31 -25 -91 c-14 -51 -30 -98 -35 -105 -6 -7 -8 -15 -5 -19 4 -3 16 17 28 45
16 39 25 49 38 44 13 -5 14 -3 4 9 -10 12 -7 25 12 64 14 27 25 63 25 80 0 18
7 38 15 45 8 7 12 17 8 23 -4 7 5 8 25 4 19 -4 32 -2 32 4 0 5 10 13 22 18
l22 8 -21 12 c-28 14 -60 2 -95 -37 l-27 -31 -41 16 c-92 37 -168 168 -189
329 -20 148 7 238 173 587 31 65 56 123 56 128 0 6 8 8 18 5 13 -4 28 7 54 42
41 53 59 108 64 197 1 33 4 60 5 60 1 0 3 27 4 60 1 33 4 65 6 70 6 20 -12 83
-25 88 -12 5 -13 43 -9 226 6 217 6 221 -14 221 -20 0 -21 -6 -22 -152z"/>
<path d="M5635 4220 c0 -2324 1 -3274 2 -2112 2 1161 2 3063 0 4225 -1 1161
-2 211 -2 -2113z"/>
<path d="M3150 6828 c0 -13 -12 -50 -25 -83 -27 -66 -29 -75 -16 -75 5 0 11
10 14 22 4 12 9 19 13 16 11 -12 -8 -49 -30 -58 -18 -6 -25 -19 -29 -53 -6
-45 -34 -106 -65 -139 -9 -11 -11 -18 -4 -18 7 0 25 19 42 42 16 22 30 35 30
29 0 -16 -32 -71 -41 -71 -4 0 -15 -7 -23 -16 -9 -8 -16 -11 -16 -6 0 6 -7 13
-16 16 -16 6 -12 -6 14 -36 7 -9 11 -21 8 -27 -4 -6 -9 -26 -11 -46 -4 -27 -1
-35 10 -35 17 0 17 -30 0 -42 -5 -4 2 -11 15 -17 14 -5 20 -10 15 -10 -7 -1
-11 -38 -11 -97 -1 -62 -5 -98 -13 -103 -6 -4 -14 -24 -16 -45 -3 -21 -7 -42
-10 -46 -3 -5 -2 -10 2 -13 5 -2 3 -2 -4 -1 -18 5 -28 -17 -12 -27 8 -5 9 -9
3 -9 -7 0 -14 -12 -17 -26 -3 -20 2 -33 21 -50 24 -23 24 -24 3 -24 -22 0 -28
-14 -11 -25 6 -4 8 -15 5 -26 -4 -10 -2 -19 4 -19 5 0 13 -10 17 -22 3 -13 14
-31 22 -41 14 -16 14 -19 2 -27 -11 -7 -8 -10 14 -10 20 0 27 -4 23 -14 -7
-17 36 -41 60 -32 16 5 16 4 -1 -9 -23 -18 -56 -20 -56 -4 0 8 -4 8 -15 -1
-16 -13 -50 -10 -50 5 0 6 -9 19 -20 31 -11 11 -27 30 -35 42 -8 13 -25 22
-40 22 -24 1 -24 1 -6 15 19 14 18 15 -11 15 -17 0 -36 7 -43 15 -7 8 -16 12
-21 9 -5 -3 -9 4 -9 15 0 12 5 21 10 21 6 0 10 7 10 16 0 8 -4 13 -9 9 -6 -3
-15 4 -22 16 -9 17 -13 19 -20 8 -5 -8 -3 -16 3 -20 6 -4 8 -14 5 -23 -4 -9
-2 -16 4 -16 6 0 8 -9 4 -20 -4 -12 -2 -20 5 -20 6 0 16 -5 23 -10 7 -6 21
-18 32 -26 11 -9 14 -13 8 -9 -9 4 -13 -1 -13 -15 0 -20 1 -20 16 -6 20 21 37
10 31 -20 -5 -30 42 -75 103 -97 45 -16 95 -13 84 5 -3 5 4 4 15 -4 22 -13 22
-13 1 -16 -23 -4 -18 -22 6 -22 19 0 49 -28 40 -37 -4 -4 -20 1 -36 11 -18 10
-39 15 -50 11 -13 -4 -20 -2 -20 7 0 8 -21 20 -47 28 -77 22 -79 23 -68 12 6
-6 19 -12 30 -14 19 -4 19 -5 -4 -17 -14 -8 -21 -9 -17 -2 8 12 -16 16 -27 4
-10 -9 31 -35 43 -28 12 7 38 -6 39 -20 1 -5 12 -10 25 -10 13 -1 31 -7 39
-13 12 -10 16 -10 20 0 2 7 8 9 13 5 5 -5 1 -14 -8 -21 -10 -7 -17 -15 -15
-17 1 -2 -3 2 -10 10 -20 23 -133 14 -133 -11 0 -5 4 -7 9 -3 5 3 13 0 16 -6
4 -6 17 -8 30 -5 14 4 28 0 35 -9 7 -8 18 -15 25 -15 6 0 20 -9 30 -20 15 -17
16 -20 3 -15 -9 4 -19 2 -23 -4 -6 -11 12 -15 50 -11 19 1 19 0 -3 -15 -21
-15 -24 -15 -50 4 l-29 20 -23 -22 c-17 -16 -21 -18 -17 -5 3 9 0 19 -9 22 -9
4 -12 2 -8 -5 9 -15 -78 42 -93 61 -11 13 -12 13 -13 -3 0 -17 -1 -17 -25 0
-27 20 -33 38 -9 29 9 -3 12 -2 9 5 -4 5 -15 7 -25 4 -10 -3 -22 0 -27 8 -4 7
-25 26 -46 41 -21 16 -46 48 -57 74 -25 56 -25 64 0 33 25 -29 26 -20 3 22
-10 18 -18 39 -20 47 -1 8 -4 30 -7 49 -3 20 1 46 10 63 11 20 11 28 2 28 -16
0 27 40 44 40 7 0 5 5 -6 11 -14 9 -21 8 -28 -2 -16 -23 -1 122 17 169 18 44
29 52 38 28 9 -23 -2 -67 -23 -94 -21 -26 -27 -82 -10 -82 6 0 8 11 6 25 -4
20 -1 25 17 26 21 0 21 1 3 8 -14 5 -16 10 -8 15 7 4 19 23 27 42 8 19 21 37
30 40 8 3 15 15 15 25 0 21 -16 26 -22 7 -2 -6 -10 -8 -16 -4 -13 8 -17 66 -4
66 4 0 8 12 9 28 1 26 1 26 -17 -8 -10 -19 -16 -39 -13 -46 2 -6 -3 -14 -11
-17 -27 -11 -141 -253 -196 -417 -4 -14 -22 -59 -40 -100 -17 -41 -43 -101
-56 -133 -25 -59 -80 -254 -114 -402 -10 -44 -30 -113 -44 -154 -56 -161 -89
-454 -75 -666 20 -315 77 -726 129 -920 16 -60 38 -155 49 -210 44 -227 56
-291 54 -305 -3 -20 42 -215 63 -270 8 -25 24 -83 35 -130 l19 -85 -4 60 c-4
57 -3 59 10 30 7 -16 14 -50 15 -75 1 -40 2 -42 8 -15 6 28 8 25 24 -35 10
-36 29 -110 42 -165 12 -55 28 -113 34 -130 21 -58 51 -268 51 -358 0 -85 -36
-473 -61 -647 -15 -109 -15 -343 1 -432 7 -43 16 -78 19 -78 25 1 34 24 38
101 4 94 19 163 33 154 14 -9 12 -43 -1 -47 -7 -2 -10 -11 -7 -19 11 -32 38
50 38 117 0 37 3 65 6 61 3 -3 6 -22 6 -42 0 -71 13 -22 18 68 5 86 6 90 17
57 l11 -35 1 38 c1 21 8 45 16 53 13 14 15 8 16 -48 1 -50 3 -57 9 -33 4 17 8
53 10 80 2 61 13 95 25 76 4 -8 3 -16 -3 -20 -8 -5 -9 -40 -5 -111 4 -58 7
-151 7 -207 1 -71 5 -104 13 -107 21 -9 33 63 33 203 0 74 2 132 5 130 6 -6
19 -175 17 -223 -1 -22 2 -36 6 -32 4 4 12 -27 18 -71 l11 -78 3 70 2 70 24
-110 c21 -99 23 -104 18 -45 -3 36 -7 81 -9 100 -2 19 7 -8 20 -60 13 -52 24
-105 25 -117 0 -12 4 -25 10 -28 17 -10 -2 258 -39 565 -11 91 -22 197 -25
235 -36 481 -36 479 4 880 16 165 39 408 50 540 11 132 23 258 25 280 7 61 44
460 50 543 3 40 8 87 11 105 7 52 31 355 38 482 2 28 7 93 10 145 12 154 14
187 21 345 3 83 8 162 11 178 4 18 1 27 -7 27 -10 0 -10 3 -1 12 16 16 15 45
0 51 -10 4 -10 6 0 6 6 1 12 10 12 20 0 11 -6 22 -12 25 -10 5 -10 7 0 12 6 3
12 12 12 19 0 7 -6 16 -12 19 -9 3 -8 8 5 16 9 6 17 15 17 20 0 6 -8 10 -17
10 -17 1 -17 1 0 14 21 16 22 36 2 36 -8 0 -15 5 -15 10 0 6 7 10 15 10 8 0
15 7 15 15 0 8 -7 15 -15 15 -8 0 -15 5 -15 10 0 6 7 10 15 10 8 0 15 7 15 15
0 8 -7 15 -15 15 -8 0 -15 4 -15 10 0 5 7 7 15 4 12 -5 14 13 13 118 0 67 4
162 11 210 6 48 11 125 11 170 -1 46 3 116 9 157 11 72 0 261 -16 301 -4 8 -7
20 -8 25 -1 6 -5 28 -9 50 -7 34 -10 37 -17 20 -6 -16 -8 -12 -7 15 1 53 -23
153 -40 167 -11 9 -13 24 -9 56 7 50 -11 68 -57 60 -21 -4 -26 -10 -23 -24 4
-14 0 -19 -14 -19 -10 0 -19 7 -19 15 0 8 -6 15 -14 15 -25 0 -29 21 -9 48 36
48 50 86 77 198 29 125 30 128 16 119 -14 -9 -12 21 3 37 15 16 21 88 7 88 -6
0 -10 -10 -10 -22z m37 -804 c12 -3 24 -13 27 -21 5 -11 2 -13 -11 -8 -40 16
-50 15 -85 -12 -21 -15 -37 -32 -38 -37 0 -5 10 0 23 12 23 22 67 30 67 13 0
-5 9 -11 20 -14 11 -3 20 -12 20 -20 0 -8 7 -28 15 -43 8 -16 15 -38 14 -49 0
-14 -2 -16 -6 -5 -18 50 -37 80 -54 85 -56 15 -64 16 -49 6 13 -9 13 -11 -2
-11 -10 0 -18 -4 -18 -10 0 -5 -8 -7 -17 -3 -15 5 -16 3 -5 -8 6 -7 12 -28 12
-47 0 -66 44 -115 92 -101 30 8 30 2 1 -33 -8 -9 -10 -19 -5 -22 12 -7 52 22
52 40 0 18 36 85 42 79 10 -10 -2 -98 -16 -120 -18 -27 -56 -51 -56 -36 0 5
-15 15 -34 21 -46 15 -83 45 -102 82 -17 33 -22 110 -9 147 6 17 5 22 -3 17
-16 -10 -15 7 2 48 21 50 61 66 123 50z m-546 -225 c-6 -18 -11 -45 -11 -60 0
-15 -7 -54 -15 -86 -21 -81 -22 -139 -2 -161 9 -10 18 -33 20 -50 4 -32 40
-78 107 -137 51 -44 122 -95 134 -95 16 0 131 -83 150 -108 22 -28 10 -46 -32
-49 -54 -4 -73 -10 -98 -30 -24 -20 -29 -20 -66 -7 -52 18 -64 18 -48 -1 10
-12 9 -16 -4 -21 -15 -6 -15 -8 -1 -24 8 -9 12 -19 9 -23 -3 -3 14 -11 38 -18
23 -7 47 -15 51 -19 13 -11 -47 -4 -70 8 -28 16 -34 15 -27 -3 3 -8 9 -14 12
-13 4 1 14 -2 22 -5 8 -3 34 -11 58 -17 39 -10 58 -30 30 -30 -9 0 -8 -3 2 -9
8 -6 18 -7 23 -4 5 3 7 -8 5 -23 -3 -25 -8 -29 -37 -32 -34 -3 -65 -24 -54
-36 4 -3 2 -6 -4 -6 -28 0 -23 40 6 40 14 1 13 3 -3 15 -11 8 -27 15 -35 15
-14 0 -14 -2 -1 -10 24 -15 2 -24 -27 -11 -22 10 -25 10 -15 -2 7 -8 8 -17 4
-22 -4 -4 3 -5 16 -2 12 3 20 1 16 -4 -3 -5 6 -14 19 -20 25 -11 27 -38 4 -67
-8 -11 -5 -19 13 -33 14 -10 22 -19 17 -19 -9 0 -47 21 -69 39 -10 8 -18 10
-18 5 0 -5 10 -15 21 -23 18 -10 19 -15 8 -22 -8 -5 -23 -6 -34 -4 -11 3 -6
-2 10 -10 23 -11 25 -14 11 -15 -20 0 -20 0 0 -15 25 -19 45 -19 38 -1 -7 19
30 10 48 -12 11 -13 10 -15 -10 -10 -19 5 -22 3 -17 -13 7 -22 -6 -24 -37 -8
-14 8 -23 8 -31 0 -8 -8 -6 -11 8 -11 17 0 17 -2 -4 -22 -22 -19 -22 -22 -7
-33 22 -16 20 -25 -4 -25 -28 0 -20 -22 15 -42 l30 -17 -40 6 -40 6 20 -22
c13 -15 16 -24 8 -29 -7 -5 -10 -25 -7 -52 2 -25 5 -52 6 -60 4 -46 -3 -70
-21 -70 -16 0 -17 -4 -7 -35 10 -32 26 -48 26 -26 0 5 7 16 15 24 8 8 16 32
19 53 2 22 5 40 7 42 1 1 2 5 3 10 1 4 5 13 9 20 5 7 3 12 -5 12 -10 0 -10 2
1 9 11 7 11 10 0 16 -9 6 -8 10 7 16 28 11 44 10 44 -2 0 -6 -8 -8 -17 -5 -17
6 -17 5 0 -8 15 -12 16 -15 2 -26 -9 -7 -13 -21 -10 -31 4 -11 2 -19 -5 -19
-6 0 -8 -5 -4 -11 3 -6 0 -15 -7 -20 -11 -7 -11 -9 -1 -9 9 0 11 -13 6 -50 -6
-47 -5 -50 20 -60 27 -10 33 -24 16 -35 -5 -3 -10 -12 -10 -18 0 -7 8 -2 18
11 17 21 18 22 19 3 1 -11 -5 -22 -13 -25 -8 -3 -14 -10 -14 -16 0 -6 4 -9 9
-6 9 6 67 -12 60 -18 -2 -2 -17 -6 -34 -10 -21 -5 -26 -4 -15 3 8 6 12 13 8
16 -3 4 -15 -2 -26 -13 -11 -11 -23 -18 -26 -14 -3 3 -6 0 -6 -7 0 -7 9 -9 25
-5 16 4 25 2 25 -5 0 -7 9 -15 21 -19 16 -6 8 -11 -42 -26 -58 -18 -63 -18
-74 -2 -11 14 -14 14 -25 1 -6 -8 -10 -20 -7 -27 4 -8 6 -7 6 5 1 16 21 26 21
9 0 -4 23 -16 50 -27 42 -16 48 -22 35 -31 -25 -18 -17 -27 19 -20 20 4 37 2
41 -4 3 -5 -2 -9 -12 -8 -39 3 -55 -2 -50 -16 3 -8 1 -17 -6 -19 -7 -3 -1 -9
12 -14 l23 -9 -26 -17 c-26 -18 -36 -47 -15 -47 7 0 18 8 25 18 12 15 13 15
14 0 0 -9 -12 -21 -27 -26 -27 -10 -28 -11 -5 -17 12 -4 22 -12 22 -17 0 -5
-9 -7 -20 -3 -15 5 -18 3 -14 -10 4 -8 15 -20 25 -26 25 -13 24 -29 0 -29 -11
0 -23 -5 -27 -12 -4 -6 -3 -8 3 -5 6 4 13 0 17 -8 3 -10 -1 -15 -12 -16 -10 0
-12 -3 -4 -6 6 -2 12 -9 12 -14 0 -4 -7 -5 -17 -2 -10 4 -14 2 -9 -5 4 -7 -6
-12 -26 -15 -33 -4 -33 -4 5 -5 20 -1 37 -6 37 -12 0 -5 -4 -10 -10 -10 -20 0
-9 -20 14 -26 25 -6 25 -6 6 -27 -18 -19 -18 -21 -2 -34 16 -13 15 -14 -5 -8
-25 7 -36 -5 -21 -25 8 -12 9 -11 4 4 -5 14 -2 17 10 12 8 -3 23 -6 31 -6 13
0 13 -3 3 -15 -7 -8 -18 -15 -25 -15 -8 0 -15 -4 -17 -10 -1 -5 -23 -12 -47
-14 -24 -2 -47 -9 -50 -15 -7 -11 -51 -4 -51 8 0 16 32 51 42 45 6 -4 8 -2 4
4 -8 13 31 42 58 42 16 0 15 3 -7 20 -26 20 -87 38 -87 26 0 -4 15 -12 32 -18
l33 -12 -30 -8 c-18 -4 -31 -4 -33 2 -3 9 -50 34 -80 42 -9 2 -9 8 3 26 13 17
22 21 42 16 19 -5 24 -4 18 6 -5 7 -18 10 -37 6 -20 -4 -30 -1 -34 9 -4 8 -11
15 -18 15 -17 1 -50 29 -43 37 4 3 15 -1 24 -9 10 -8 27 -18 38 -20 11 -3 28
-9 38 -13 12 -5 17 -3 17 8 0 11 8 13 40 7 55 -10 51 7 -5 21 -26 6 -45 17
-45 25 0 8 -6 11 -15 8 -11 -5 -13 -2 -9 10 5 12 -2 19 -24 27 -17 6 -33 16
-36 24 -2 7 -17 16 -33 19 -20 5 -29 13 -29 26 0 30 28 24 56 -11 14 -17 34
-35 45 -41 16 -9 18 -8 8 3 -21 21 -15 29 12 17 14 -6 25 -15 25 -20 0 -10 27
-11 32 0 2 4 19 16 38 25 27 14 29 17 10 13 -31 -6 -81 18 -56 27 9 4 24 4 34
1 15 -5 14 -4 -2 6 -10 7 -33 10 -51 7 -25 -4 -38 -1 -51 14 -22 24 -30 24
-30 -2 0 -14 8 -22 28 -26 27 -5 45 -20 36 -29 -9 -9 -69 19 -78 37 -6 10 -26
21 -45 25 -26 5 -35 11 -35 26 0 15 5 18 20 13 12 -4 20 -2 20 5 0 6 6 10 13
7 6 -2 11 -11 9 -21 -2 -9 4 -16 13 -16 8 0 15 4 15 10 0 5 6 7 13 5 7 -3 12
4 12 20 0 14 -4 25 -9 25 -4 0 -27 19 -49 43 -23 23 -54 52 -69 63 l-29 22 27
6 c30 8 45 -1 25 -13 -11 -7 -9 -11 8 -20 17 -10 21 -9 21 4 0 9 -5 25 -11 36
-10 19 -9 19 10 9 12 -6 21 -15 21 -20 0 -6 5 -10 11 -10 8 0 9 4 0 13 -6 8
-7 18 -3 22 4 5 1 5 -5 1 -8 -4 -13 -1 -13 8 0 9 -5 16 -12 16 -6 0 -8 3 -5 7
4 3 0 14 -9 24 -15 16 -14 17 8 12 12 -3 29 -10 36 -16 9 -7 11 -6 6 7 -9 24
-40 37 -67 31 -17 -5 -33 1 -55 20 -18 15 -30 31 -26 36 3 5 -2 9 -10 9 -8 0
-18 5 -21 10 -4 6 3 9 17 7 13 -2 23 -10 23 -18 0 -14 37 -51 44 -43 2 2 -2
10 -9 19 -13 16 -3 20 18 7 7 -5 10 -16 6 -25 -3 -10 -1 -17 6 -17 6 0 8 5 4
12 -5 8 0 9 15 5 22 -5 22 -5 6 13 -17 18 -16 19 20 9 20 -6 39 -8 41 -6 3 3
-7 8 -21 11 -14 4 -23 11 -19 17 4 7 -3 9 -17 7 -17 -2 -25 3 -27 16 -3 11 0
16 7 12 6 -4 11 -2 11 3 0 16 26 13 63 -6 30 -15 31 -15 18 0 -16 20 -8 22 22
6 18 -9 20 -9 10 1 -7 7 -25 14 -40 15 -54 4 -103 17 -97 26 3 5 0 9 -5 9 -6
0 -11 -4 -11 -10 0 -5 -5 -10 -11 -10 -6 0 -9 6 -7 12 3 7 -3 17 -12 23 -72
44 -92 59 -81 63 7 2 20 -3 29 -11 11 -10 28 -14 47 -11 l30 5 -25 -16 c-14
-8 -18 -14 -10 -13 8 1 26 -4 39 -11 18 -10 25 -10 31 -1 6 10 16 10 44 0 20
-6 36 -15 36 -20 0 -4 7 -10 15 -14 21 -7 14 27 -10 54 -10 11 -14 20 -9 20 5
1 -7 8 -26 16 -29 14 -32 17 -17 23 17 6 16 8 -8 19 -14 7 -32 12 -39 12 -8 0
-24 9 -37 19 l-24 19 28 -1 c15 -1 27 -7 27 -13 0 -7 13 -14 29 -16 18 -3 28
0 24 5 -4 6 3 8 18 4 23 -6 23 -5 5 8 -10 8 -23 12 -27 9 -13 -7 -71 25 -64
36 4 6 0 10 -8 10 -21 0 -28 26 -11 41 12 10 13 9 7 -6 -5 -14 -3 -17 10 -12
9 3 19 2 22 -3 4 -6 13 -10 22 -10 13 0 13 3 3 15 -15 18 0 20 20 3 8 -7 5 -1
-8 13 -12 14 -22 31 -22 37 0 7 -8 12 -19 12 -10 0 -25 7 -32 17 -13 15 -12
15 9 4 14 -7 22 -8 22 -1 0 5 7 10 15 10 18 0 19 12 3 29 -11 11 -9 12 10 6
13 -4 22 -2 22 4 0 6 -4 11 -10 11 -5 0 -10 7 -10 15 0 8 -4 15 -8 15 -5 0 -9
7 -9 15 0 8 4 12 8 9 4 -2 10 0 13 4 6 9 -24 41 -59 61 -19 12 -19 12 3 8 12
-3 22 -1 22 4 0 5 4 9 9 9 5 0 8 -6 7 -14 0 -8 4 -15 9 -16 6 0 11 9 11 20 1
13 -5 20 -17 20 -10 0 -21 5 -24 10 -3 6 -1 10 6 10 8 0 8 4 -1 15 -16 19 -9
28 14 19 9 -4 15 -13 12 -20 -3 -8 0 -14 8 -14 22 0 14 31 -10 41 -16 5 -22
14 -18 24 6 14 -6 20 -30 16 -5 -1 -4 4 3 12 9 12 9 16 -1 19 -8 3 -6 7 5 11
12 4 20 1 24 -11 7 -20 43 -62 54 -62 16 0 1 36 -19 45 -12 5 -22 16 -22 23 0
7 -10 17 -22 22 -23 9 -23 9 -1 9 19 1 20 4 10 26 -9 19 -18 25 -33 22 -13 -2
-26 4 -33 15 -6 10 -9 18 -7 18 13 0 76 -32 76 -38 0 -5 6 -16 13 -26 12 -16
15 -16 42 -2 l30 16 -26 0 c-14 0 -34 9 -44 20 -10 11 -24 20 -32 20 -7 0 -13
5 -13 10 0 6 -6 10 -14 10 -8 0 -16 6 -19 13 -7 21 4 35 24 30 21 -6 22 -3 13
22 -5 13 -8 14 -15 3 -7 -10 -9 -9 -9 5 0 21 3 21 40 2 34 -17 38 -11 13 17
-14 15 -15 21 -4 27 8 5 11 17 6 30 -5 16 -2 21 10 21 9 0 19 -9 22 -20 3 -11
9 -20 13 -20 5 0 17 -3 27 -7 10 -3 -3 16 -29 42 -26 27 -46 50 -45 52 2 1 18
-1 35 -6 l31 -9 -16 24 c-8 14 -13 27 -10 31 9 8 37 -16 34 -29 -1 -6 4 -13
11 -15 20 -8 14 15 -13 41 -25 25 -36 64 -14 50 8 -5 8 -1 0 14 -9 18 -8 21
11 24 22 3 22 3 -2 14 -23 11 -25 9 -27 -19 -3 -40 -12 -46 -29 -22 -12 15
-12 21 -2 25 7 3 13 19 13 35 -1 35 19 81 37 88 10 4 9 8 -2 16 -12 9 -10 11
10 11 19 0 21 3 11 9 -8 5 -21 6 -30 3 -11 -4 -8 3 8 26 12 18 20 36 16 41 -3
5 -1 12 4 15 6 4 6 18 0 39 -7 23 -6 35 4 42 7 6 13 21 14 35 1 26 33 123 53
160 17 31 24 17 11 -21z m189 -2566 c2 -2 -2 -8 -10 -13 -20 -13 2 -13 34 0
17 6 26 6 26 0 0 -6 -8 -10 -17 -11 -12 -1 -10 -4 7 -9 22 -7 21 -8 -12 -9
-21 -1 -38 -5 -38 -9 0 -5 -10 -14 -22 -20 -19 -9 -20 -11 -5 -11 10 -1 16 -5
13 -10 -7 -11 17 -21 52 -21 17 0 23 -3 16 -10 -6 -6 -22 -6 -44 0 -18 5 -29
6 -24 1 5 -5 25 -14 44 -20 27 -8 29 -10 10 -10 -42 2 -51 -1 -45 -11 4 -6 11
-8 16 -5 5 4 17 1 26 -4 16 -9 15 -11 -7 -11 -14 -1 -19 -4 -12 -7 10 -4 9 -9
-5 -20 -17 -13 -17 -14 4 -8 12 3 25 1 29 -6 5 -9 -4 -11 -35 -6 -36 4 -40 3
-30 -9 10 -12 9 -13 -5 -8 -9 3 -16 2 -16 -4 0 -11 47 -27 70 -23 12 2 12 0 3
-10 -10 -10 -18 -10 -38 -1 -36 17 -44 15 -38 -8 5 -20 18 -27 25 -12 2 4 19
4 38 1 19 -4 27 -7 18 -8 -10 0 -18 -8 -18 -16 0 -8 -9 -19 -20 -25 -11 -6
-18 -15 -15 -21 4 -5 0 -9 -7 -9 -10 0 -10 -2 0 -9 8 -4 12 -12 10 -17 -1 -5
7 -10 20 -12 21 -3 32 -22 12 -22 -5 0 -10 -7 -10 -15 0 -8 5 -15 11 -15 6 0
9 -6 6 -12 -2 -7 3 -19 12 -26 13 -10 11 -10 -12 0 -23 10 -30 9 -38 -3 -17
-26 -5 -44 27 -41 17 1 41 -2 55 -7 21 -9 20 -10 -13 -7 -29 2 -35 0 -30 -12
3 -8 1 -13 -4 -10 -5 3 -18 2 -29 -3 -18 -7 -18 -8 -2 -8 23 -1 56 -31 34 -31
-8 0 -19 -6 -26 -13 -8 -11 -5 -13 17 -10 15 3 38 0 52 -6 23 -10 22 -10 -14
-8 -26 1 -41 -3 -44 -12 -3 -8 0 -11 7 -7 6 4 18 0 27 -8 13 -13 13 -16 1 -16
-8 0 -20 -7 -27 -15 -10 -12 -10 -15 4 -15 19 0 23 -49 4 -51 -7 -1 -19 -2
-27 -3 -8 0 -16 -7 -19 -15 -3 -10 2 -12 22 -7 20 5 28 2 33 -11 4 -10 14 -23
22 -30 10 -7 11 -12 4 -13 -6 0 -19 7 -27 16 -9 8 -16 12 -16 8 0 -13 33 -44
47 -44 7 0 13 -5 13 -11 0 -7 -11 -8 -32 -3 -28 6 -31 5 -20 -8 6 -8 9 -17 7
-20 -11 -11 -14 -48 -4 -53 5 -4 7 -11 4 -16 -4 -5 1 -9 9 -9 24 0 19 -28 -6
-36 -25 -9 -33 -11 -48 -13 -5 0 -10 -9 -10 -18 0 -15 2 -16 10 -3 8 13 10 13
10 1 0 -11 4 -10 14 4 13 18 71 24 85 9 3 -4 -7 -4 -22 -2 -22 4 -27 2 -22 -9
3 -10 1 -13 -9 -10 -10 4 -13 -5 -13 -34 0 -21 3 -39 7 -39 4 0 10 -9 13 -20
3 -11 1 -20 -5 -20 -6 0 -8 -9 -5 -20 3 -11 1 -23 -4 -26 -5 -3 -7 -9 -4 -14
3 -5 1 -11 -5 -15 -6 -4 -7 -11 -4 -17 5 -7 2 -9 -7 -6 -9 4 -15 -1 -15 -12 0
-12 6 -16 21 -13 18 4 18 3 3 -7 -29 -18 -22 -33 12 -27 16 4 32 2 35 -4 4 -5
3 -9 -2 -8 -16 4 -63 -13 -58 -22 3 -4 12 -6 20 -2 11 4 13 1 9 -11 -7 -18
-25 -21 -40 -6 -7 7 -11 6 -11 -5 0 -8 6 -16 14 -16 27 -3 32 -4 39 -12 4 -4
-9 -6 -29 -3 -22 3 -35 1 -32 -5 4 -5 11 -9 16 -9 6 0 18 -7 26 -16 13 -12 13
-15 2 -14 -32 5 -38 -1 -36 -33 2 -18 6 -37 9 -42 5 -8 5 -39 -1 -67 0 -3 -9
-9 -18 -11 -14 -4 -13 -5 4 -6 12 0 24 -5 28 -10 3 -6 -6 -8 -20 -5 -18 3 -23
1 -19 -10 3 -8 -3 -19 -15 -25 -30 -17 -34 -14 -28 23 3 18 1 38 -5 44 -8 8
-5 9 10 5 19 -5 20 -2 13 25 -5 16 -5 35 0 43 5 8 9 19 9 24 0 6 -4 3 -9 -5
-11 -17 -8 45 4 73 4 10 2 24 -6 34 -8 9 -9 14 -3 10 7 -4 17 0 24 8 10 13 9
15 -9 15 -20 0 -21 1 -7 16 9 8 13 20 10 26 -4 6 -9 29 -11 50 -2 22 -8 48
-13 58 -7 13 -6 20 3 24 9 5 9 7 0 12 -15 7 -5 34 13 34 19 0 18 29 -2 37 -13
5 -13 7 -2 14 8 6 9 9 1 9 -7 0 -10 22 -9 67 3 68 -1 78 -39 102 -19 11 -19
12 2 6 31 -8 21 17 -13 35 -13 7 -24 17 -24 21 0 8 20 7 36 -3 6 -4 20 -4 32
-1 21 5 21 6 5 19 -16 12 -13 12 17 4 47 -13 55 -13 40 5 -7 8 -23 15 -37 15
-30 0 -58 26 -58 56 -1 13 2 21 7 18 11 -7 58 7 58 17 0 5 -8 9 -17 10 -15 0
-15 2 2 8 14 6 25 3 38 -10 19 -21 37 -25 37 -9 0 6 -5 10 -10 10 -6 0 -21 9
-32 20 -12 11 -37 25 -55 32 -30 11 -48 31 -22 26 6 -2 14 3 17 11 3 8 0 11
-7 7 -6 -4 -31 7 -55 23 -45 31 -62 38 -52 22 7 -11 -38 -23 -58 -15 -13 5
-14 10 -5 20 6 7 8 23 4 34 -6 18 -3 21 12 18 10 -2 17 -9 16 -15 -3 -14 32
-27 47 -18 6 4 8 16 4 27 -4 15 -3 18 6 13 6 -4 10 -18 7 -31 -2 -14 1 -24 7
-24 6 0 23 -8 36 -17 30 -22 81 -27 74 -8 -3 7 -14 15 -25 18 -16 4 -18 11
-13 33 5 20 4 25 -5 20 -7 -4 -18 -2 -26 4 -8 6 -19 9 -26 5 -8 -5 -7 0 1 16
7 13 9 21 5 17 -4 -3 -27 0 -53 7 -25 8 -49 12 -54 9 -13 -9 -55 22 -55 40 0
11 8 15 23 13 33 -4 42 -17 13 -18 -17 -1 -19 -3 -6 -6 9 -2 15 -8 13 -12 -9
-14 75 -5 85 9 8 13 11 12 20 -2 13 -23 52 -24 47 -1 -2 9 -9 18 -17 21 -8 3
-11 0 -7 -7 4 -6 2 -11 -3 -11 -6 0 -11 7 -11 16 0 11 -6 15 -19 11 -13 -3
-18 0 -15 8 3 7 15 11 27 9 15 -3 13 -1 -5 7 -16 6 -28 15 -28 20 0 5 -16 25
-36 44 -30 29 -33 36 -19 41 9 4 34 2 54 -5 21 -6 43 -11 49 -11 16 0 3 32
-21 51 -22 18 -15 39 13 39 25 0 35 -17 13 -22 -15 -3 -14 -5 5 -10 12 -3 20
-2 16 3 -3 5 0 9 7 9 7 0 10 11 7 30 -3 17 0 30 5 30 5 0 4 7 -3 15 -10 12
-10 15 0 15 8 0 11 3 8 6 -4 3 -16 1 -27 -6 -12 -6 -20 -7 -19 -2 2 6 -6 18
-17 28 -25 23 -31 74 -9 74 9 0 12 5 8 13 -4 6 2 4 13 -6 14 -12 23 -15 28 -8
3 6 1 11 -4 11 -6 0 -11 6 -11 14 0 8 -9 18 -20 21 -11 4 -18 11 -14 16 3 6
16 4 31 -6 14 -9 27 -14 31 -11 3 3 0 6 -6 6 -7 0 -12 4 -12 10 0 5 6 7 14 4
7 -3 16 2 20 11 5 13 13 15 38 10 18 -4 35 -9 38 -12z"/>
</g>
</svg>
